<svg width="461" height="339" viewBox="0 0 461 339" fill="none" xmlns="http://www.w3.org/2000/svg">
<path fill-rule="evenodd" clip-rule="evenodd" d="M169.505 128.427C171.672 131.927 178.505 138.927 188.505 138.927L162.505 165.927C155.838 165.927 142.005 167.527 140.005 173.927C135.005 171.927 126.505 173.427 126.505 177.927C126.505 182.427 137.005 185.927 140.005 180.427L152.005 176.427C148.838 179.927 140.805 188.027 134.005 192.427C132.838 196.76 133.105 203.527 143.505 195.927C145.505 194.594 150.805 189.927 156.005 181.927C155.338 185.76 153.305 195.127 150.505 201.927C147.705 208.727 152.338 210.094 155.005 209.927C157.338 209.427 161.705 206.727 160.505 199.927C159.305 193.127 162.338 188.76 164.005 187.427C164.172 190.594 165.605 197.527 170.005 199.927C174.405 202.327 176.172 198.26 176.505 195.927C176.005 192.427 169.205 188.427 170.005 172.427C182.505 165.594 207.705 150.427 208.505 144.427C208.549 144.099 208.567 143.765 208.561 143.427C219.876 151.26 248.905 167.627 274.505 170.427C300.105 173.227 319.172 173.26 325.505 172.927C324.172 176.427 319.505 184.827 311.505 190.427C303.505 196.027 306.838 203.76 309.505 206.927C313.005 209.76 324.105 216.327 340.505 219.927C356.905 223.527 318.005 230.427 298.505 225.927C295.505 224.927 290.105 224.327 292.505 229.927C294.905 235.527 301.172 234.927 304.005 233.927C310.005 235.927 324.205 238.727 333.005 233.927C337.405 235.927 318.172 245.76 308.005 250.427C304.505 249.594 297.393 250.047 299.505 257.927C304.005 263.427 307.838 259.594 311.005 255.427C317.005 253.594 331.573 249.332 336.505 242.427C339.005 238.927 334.672 250.927 330.005 258.927C328.505 261.927 326.705 268.227 331.505 269.427C336.305 270.627 337.172 262.26 337.005 257.927C341.505 251.76 350.905 238.027 352.505 232.427C354.505 231.26 358.605 228.527 359.005 226.927C359.405 225.327 356.505 224.594 355.005 224.427C357.505 223.76 362.605 220.227 363.005 211.427C365.838 208.594 370.505 202.327 366.505 199.927C362.505 197.527 359.838 201.594 359.005 203.927C358.672 207.094 356.905 214.027 352.505 216.427C347.338 210.26 334.505 198.027 324.505 198.427C334.998 196.275 356.306 188.476 371.707 172.927C390.639 176.094 426.405 198.127 418.005 260.927C411.114 312.445 333.005 306.927 317.005 301.927C294.505 289.927 280.223 277.895 273.005 267.927C264.172 259.094 238.205 242.827 205.005 248.427C171.805 254.027 160.505 272.427 159.005 280.927C158.338 285.094 158.105 294.627 162.505 299.427C165.338 288.094 176.805 265.427 200.005 265.427C223.205 265.427 242.672 280.427 249.505 287.927C263.672 306.594 302.505 342.627 344.505 337.427C374.172 336.927 437.205 322.327 452.005 267.927C459.737 239.506 461.073 218.491 459.707 203.927C453.468 185.527 444.306 183.26 440.505 184.427C435.005 186.927 423.405 189.127 421.005 177.927C417.805 164.327 437.094 161.927 447.138 162.427C442.618 153.376 434.515 143.647 421.005 137.069C418.838 137.855 413.905 139.327 411.505 138.927C409.105 138.527 405.838 144.427 404.505 147.427C403.505 148.927 399.405 152.327 391.005 153.927C382.605 155.527 381.172 150.927 381.505 148.427C381.838 145.427 383.405 138.627 387.005 135.427C390.605 132.227 398.838 130.224 402.505 129.622C398.333 125.951 393.137 121.928 387.005 117.794C385.557 116.817 384.056 115.835 382.505 114.849C364.505 126.772 375.005 122.427 359.005 137.927C346.205 150.327 341.005 146.76 340.005 143.427C339.505 140.76 339.105 133.127 341.505 123.927C343.905 114.727 354.172 105.384 359.005 101.863C354.414 99.6614 349.576 97.5195 344.505 95.4768C341.581 94.299 338.58 93.1542 335.505 92.05C338.005 95.509 340.205 101.927 329.005 99.927C317.805 97.927 310.338 110.094 308.005 116.427C304.172 126.094 293.905 145.427 283.505 145.427C273.105 145.427 271.505 136.094 272.005 131.427C272.838 125.094 276.905 110.927 286.505 104.927C296.105 98.927 297.172 86.7919 296.505 81.4743C291.62 80.5615 286.617 79.7768 281.505 79.1391C275.838 82.4017 264.505 91.127 264.505 99.927C264.505 108.727 256.838 119.594 253.005 123.927C248.338 127.094 237.005 132.027 229.005 126.427C221.005 120.827 229.005 109.76 234.005 104.927C236.338 102.76 241.805 97.027 245.005 91.427C248.205 85.827 249.005 79.6287 249.005 77.2296C238.346 77.3024 227.329 78.0629 216.005 79.6456C214.51 79.8545 213.01 80.0777 211.505 80.3156C209.005 82.5194 203.605 88.527 202.005 94.927C200.405 101.327 194.005 101.927 191.005 101.427C188.672 100.26 185.105 96.627 189.505 91.427C193.905 86.227 196.16 81.4061 196.737 79.6456C191.85 60.5371 178.809 23.8405 149.005 17.427C142.505 10.427 139.505 9.42701 133.505 6.92701C132.005 1.927 88.6051 -8.373 67.0051 16.427C45.4051 41.227 43.6717 68.9061 45.5051 79.6456C47.3384 83.2394 46.805 92.127 30.0051 98.927C13.2051 105.727 3.33838 121.427 0.505051 128.427C1.00505 138.094 8.90505 156.327 36.5051 151.927C43.0466 150.884 51.1404 148.547 60.0051 145.413C64.6633 143.766 69.5345 141.899 74.5051 139.884C99.9843 129.554 128.076 115.333 143.505 106.927C135.838 116.927 112.905 142.127 82.5051 162.927C52.1051 183.727 64.5051 156.232 74.5051 139.884C69.5345 141.899 64.6633 143.766 60.0051 145.413C58.5051 153.085 56.4051 169.227 60.0051 172.427C64.5051 176.427 64.5051 177.927 74.5051 177.927C82.5051 177.927 117.505 152.565 134.005 139.884C138.672 137.398 149.605 132.727 156.005 133.927C162.405 135.127 167.672 130.76 169.505 128.427ZM39.5051 136.927C35.9051 130.927 41.0051 128.094 44.0051 127.427C45.5051 127.76 47.9051 129.527 45.5051 133.927C43.1051 138.327 40.5051 137.76 39.5051 136.927Z" fill="#4C934A"/>
<path d="M377.005 69.927C369.005 64.327 352.005 84.6269 344.505 95.4768C349.576 97.5195 354.414 99.6614 359.005 101.863C366.521 105.467 373.375 109.23 379.505 112.979C379.76 111.756 380.019 110.393 380.272 108.927C382.502 95.9887 384.191 74.9569 377.005 69.927Z" fill="#4C934A"/>
<path d="M216.005 79.6456C218.672 76.7394 223.205 69.227 220.005 62.427C216.805 55.627 222.672 47.2603 226.005 43.927C228.172 43.7603 232.405 42.327 232.005 37.927C236.172 36.427 243.405 32.227 239.005 27.427C234.605 22.627 228.505 30.7603 226.005 35.427C227.005 30.927 227.905 22.227 223.505 23.427C223.505 16.2603 220.005 4.42699 216.005 21.427C216.005 39.427 213.005 36.2603 211.505 32.427C211.338 31.427 210.105 29.027 206.505 27.427C206.505 24.427 205.605 18.727 202.005 19.927C198.405 21.127 199.505 25.427 200.505 27.427C201.505 33.427 211.305 38.227 206.505 41.427C205.672 40.2603 202.705 37.927 197.505 37.927C196.672 34.0937 193.905 28.527 189.505 36.927C186.505 47.927 204.505 42.427 206.505 47.427C208.505 52.427 218.505 61.927 197.505 82.927C202.219 81.9128 206.887 81.0453 211.505 80.3156C213.01 80.0777 214.51 79.8545 216.005 79.6456Z" fill="#4C934A"/>
<path d="M380.272 108.927C380.019 110.393 379.76 111.756 379.505 112.979C380.525 113.603 381.525 114.227 382.505 114.849C384.056 115.835 385.557 116.817 387.005 117.794C404.505 113.661 401.005 114.427 409.005 105.927C415.405 99.127 409.338 100.094 405.505 101.427C400.305 109.027 392.338 110.594 389.005 110.427C390.172 109.927 393.105 106.237 395.505 95.4768C397.905 84.7167 394.505 86.9602 392.505 89.427C386.905 106.227 382.016 109.427 380.272 108.927Z" fill="#4C934A"/>
<path d="M44.0051 127.427C41.0051 128.094 35.9051 130.927 39.5051 136.927C40.5051 137.76 43.1051 138.327 45.5051 133.927C47.9051 129.527 45.5051 127.76 44.0051 127.427Z" fill="black"/>
<path d="M82.5051 162.927C112.905 142.127 135.838 116.927 143.505 106.927C128.076 115.333 99.9843 129.554 74.5051 139.884C64.5051 156.232 52.1051 183.727 82.5051 162.927Z" fill="#934A5C"/>
<path d="M197.505 82.927C197.287 81.8943 197.031 80.7974 196.737 79.6456C196.16 81.4061 193.905 86.227 189.505 91.427C185.105 96.627 188.672 100.26 191.005 101.427C194.005 101.927 200.405 101.327 202.005 94.927C203.605 88.527 209.005 82.5194 211.505 80.3156C206.887 81.0453 202.219 81.9128 197.505 82.927Z" fill="#276026"/>
<path d="M249.005 77.2296C249.005 79.6287 248.205 85.827 245.005 91.427C241.805 97.027 236.338 102.76 234.005 104.927C229.005 109.76 221.005 120.827 229.005 126.427C237.005 132.027 248.338 127.094 253.005 123.927C256.838 119.594 264.505 108.727 264.505 99.927C264.505 91.127 275.838 82.4017 281.505 79.1391C271.107 77.842 260.255 77.1528 249.005 77.2296Z" fill="#276026"/>
<path d="M296.505 81.4743C297.172 86.7919 296.105 98.927 286.505 104.927C276.905 110.927 272.838 125.094 272.005 131.427C271.505 136.094 273.105 145.427 283.505 145.427C293.905 145.427 304.172 126.094 308.005 116.427C310.338 110.094 317.805 97.927 329.005 99.927C340.205 101.927 338.005 95.509 335.505 92.05C323.573 87.766 310.52 84.0929 296.505 81.4743Z" fill="#276026"/>
<path d="M379.505 112.979C373.375 109.23 366.521 105.467 359.005 101.863C354.172 105.384 343.905 114.727 341.505 123.927C339.105 133.127 339.505 140.76 340.005 143.427C341.005 146.76 346.205 150.327 359.005 137.927C375.005 122.427 364.505 126.772 382.505 114.849C381.525 114.227 380.525 113.603 379.505 112.979Z" fill="#276026"/>
<path d="M452.005 179.427C451.774 175.046 450.376 168.91 447.138 162.427C437.094 161.927 417.805 164.327 421.005 177.927C423.405 189.127 435.005 186.927 440.505 184.427C444.306 183.26 453.468 185.527 459.707 203.927C458.458 190.614 454.95 182.69 452.005 179.427Z" fill="#276026"/>
<path d="M404.505 131.427C403.867 130.836 403.2 130.234 402.505 129.622C398.838 130.224 390.605 132.227 387.005 135.427C383.405 138.627 381.838 145.427 381.505 148.427C381.172 150.927 382.605 155.527 391.005 153.927C399.405 152.327 403.505 148.927 404.505 147.427C405.838 144.427 409.105 138.527 411.505 138.927C413.905 139.327 418.838 137.855 421.005 137.069C416.213 134.735 410.74 132.797 404.505 131.427Z" fill="#276026"/>
<path d="M197.505 127.427C201.286 130.42 208.463 137.584 208.561 143.427M208.561 143.427C208.567 143.765 208.549 144.099 208.505 144.427C207.705 150.427 182.505 165.594 170.005 172.427C169.205 188.427 176.005 192.427 176.505 195.927C176.172 198.26 174.405 202.327 170.005 199.927C165.605 197.527 164.172 190.594 164.005 187.427C162.338 188.76 159.305 193.127 160.505 199.927C161.705 206.727 157.338 209.427 155.005 209.927C152.338 210.094 147.705 208.727 150.505 201.927C153.305 195.127 155.338 185.76 156.005 181.927C150.805 189.927 145.505 194.594 143.505 195.927C133.105 203.527 132.838 196.76 134.005 192.427C140.805 188.027 148.838 179.927 152.005 176.427L140.005 180.427C137.005 185.927 126.505 182.427 126.505 177.927C126.505 173.427 135.005 171.927 140.005 173.927C142.005 167.527 155.838 165.927 162.505 165.927L188.505 138.927C178.505 138.927 171.672 131.927 169.505 128.427C167.672 130.76 162.405 135.127 156.005 133.927C149.605 132.727 138.672 137.398 134.005 139.884C117.505 152.565 82.5051 177.927 74.5051 177.927C64.5051 177.927 64.5051 176.427 60.0051 172.427C56.4051 169.227 58.5051 153.085 60.0051 145.413M208.561 143.427C219.876 151.26 248.905 167.627 274.505 170.427C300.105 173.227 319.172 173.26 325.505 172.927M325.505 172.927C325.172 166.594 325.905 153.527 331.505 151.927M325.505 172.927C324.172 176.427 319.505 184.827 311.505 190.427C303.505 196.027 306.838 203.76 309.505 206.927C313.005 209.76 324.105 216.327 340.505 219.927C356.905 223.527 318.005 230.427 298.505 225.927C295.505 224.927 290.105 224.327 292.505 229.927C294.905 235.527 301.172 234.927 304.005 233.927C310.005 235.927 324.205 238.727 333.005 233.927C337.405 235.927 318.172 245.76 308.005 250.427C304.505 249.594 297.393 250.047 299.505 257.927C304.005 263.427 307.838 259.594 311.005 255.427C317.005 253.594 331.573 249.332 336.505 242.427C339.005 238.927 334.672 250.927 330.005 258.927C328.505 261.927 326.705 268.227 331.505 269.427C336.305 270.627 337.172 262.26 337.005 257.927C341.505 251.76 350.905 238.027 352.505 232.427C354.505 231.26 358.605 228.527 359.005 226.927C359.405 225.327 356.505 224.594 355.005 224.427C357.505 223.76 362.605 220.227 363.005 211.427C365.838 208.594 370.505 202.327 366.505 199.927C362.505 197.527 359.838 201.594 359.005 203.927C358.672 207.094 356.905 214.027 352.505 216.427C347.338 210.26 334.505 198.027 324.505 198.427C334.998 196.275 356.306 188.476 371.707 172.927M381.505 160.427C378.728 165.055 375.386 169.212 371.707 172.927M371.707 172.927C390.639 176.094 426.405 198.127 418.005 260.927C411.114 312.445 333.005 306.927 317.005 301.927C294.505 289.927 280.223 277.895 273.005 267.927C264.172 259.094 238.205 242.827 205.005 248.427C171.805 254.027 160.505 272.427 159.005 280.927C158.338 285.094 158.105 294.627 162.505 299.427C165.338 288.094 176.805 265.427 200.005 265.427C223.205 265.427 242.672 280.427 249.505 287.927C263.672 306.594 302.505 342.627 344.505 337.427C374.172 336.927 437.205 322.327 452.005 267.927C459.737 239.506 461.073 218.491 459.707 203.927M197.505 82.927C218.505 61.927 208.505 52.427 206.505 47.427C204.505 42.427 186.505 47.927 189.505 36.927C193.905 28.527 196.672 34.0937 197.505 37.927C202.705 37.927 205.672 40.2603 206.505 41.427C211.305 38.227 201.505 33.427 200.505 27.427C199.505 25.427 198.405 21.127 202.005 19.927C205.605 18.727 206.505 24.427 206.505 27.427C210.105 29.027 211.338 31.427 211.505 32.427C213.005 36.2603 216.005 39.427 216.005 21.427C220.005 4.42699 223.505 16.2603 223.505 23.427C227.905 22.227 227.005 30.927 226.005 35.427C228.505 30.7603 234.605 22.627 239.005 27.427C243.405 32.227 236.172 36.427 232.005 37.927C232.405 42.327 228.172 43.7603 226.005 43.927C222.672 47.2603 216.805 55.627 220.005 62.427C223.205 69.227 218.672 76.7394 216.005 79.6456M197.505 82.927C197.287 81.8943 197.031 80.7974 196.737 79.6456M197.505 82.927C202.219 81.9128 206.887 81.0453 211.505 80.3156M216.005 79.6456C214.51 79.8545 213.01 80.0777 211.505 80.3156M216.005 79.6456C227.329 78.0629 238.346 77.3024 249.005 77.2296M344.505 95.4768C352.005 84.6269 369.005 64.327 377.005 69.927C384.191 74.9569 382.502 95.9887 380.272 108.927M344.505 95.4768C341.581 94.299 338.58 93.1542 335.505 92.05M344.505 95.4768C349.576 97.5195 354.414 99.6614 359.005 101.863M379.505 112.979C379.76 111.756 380.019 110.393 380.272 108.927M379.505 112.979C373.375 109.23 366.521 105.467 359.005 101.863M379.505 112.979C380.525 113.603 381.525 114.227 382.505 114.849M380.272 108.927C382.016 109.427 386.905 106.227 392.505 89.427C394.505 86.9602 397.905 84.7167 395.505 95.4768C393.105 106.237 390.172 109.927 389.005 110.427C392.338 110.594 400.305 109.027 405.505 101.427C409.338 100.094 415.405 99.127 409.005 105.927C401.005 114.427 404.505 113.661 387.005 117.794M387.005 117.794C385.557 116.817 384.056 115.835 382.505 114.849M387.005 117.794C393.137 121.928 398.333 125.951 402.505 129.622M74.5051 139.884C99.9843 129.554 128.076 115.333 143.505 106.927C135.838 116.927 112.905 142.127 82.5051 162.927C52.1051 183.727 64.5051 156.232 74.5051 139.884ZM74.5051 139.884C69.5345 141.899 64.6633 143.766 60.0051 145.413M60.0051 145.413C51.1404 148.547 43.0466 150.884 36.5051 151.927C8.90505 156.327 1.00505 138.094 0.505051 128.427C3.33838 121.427 13.2051 105.727 30.0051 98.927C46.805 92.127 47.3384 83.2394 45.5051 79.6456C43.6717 68.9061 45.4051 41.227 67.0051 16.427C88.6051 -8.373 132.005 1.927 133.505 6.92701C139.505 9.42701 142.505 10.427 149.005 17.427C178.809 23.8405 191.85 60.5371 196.737 79.6456M196.737 79.6456C196.16 81.4061 193.905 86.227 189.505 91.427C185.105 96.627 188.672 100.26 191.005 101.427C194.005 101.927 200.405 101.327 202.005 94.927C203.605 88.527 209.005 82.5194 211.505 80.3156M249.005 77.2296C249.005 79.6287 248.205 85.827 245.005 91.427C241.805 97.027 236.338 102.76 234.005 104.927C229.005 109.76 221.005 120.827 229.005 126.427C237.005 132.027 248.338 127.094 253.005 123.927C256.838 119.594 264.505 108.727 264.505 99.927C264.505 91.127 275.838 82.4017 281.505 79.1391M249.005 77.2296C260.255 77.1528 271.107 77.842 281.505 79.1391M281.505 79.1391C286.617 79.7768 291.62 80.5615 296.505 81.4743M296.505 81.4743C297.172 86.7919 296.105 98.927 286.505 104.927C276.905 110.927 272.838 125.094 272.005 131.427C271.505 136.094 273.105 145.427 283.505 145.427C293.905 145.427 304.172 126.094 308.005 116.427C310.338 110.094 317.805 97.927 329.005 99.927C340.205 101.927 338.005 95.509 335.505 92.05M296.505 81.4743C310.52 84.0929 323.573 87.766 335.505 92.05M359.005 101.863C354.172 105.384 343.905 114.727 341.505 123.927C339.105 133.127 339.505 140.76 340.005 143.427C341.005 146.76 346.205 150.327 359.005 137.927C375.005 122.427 364.505 126.772 382.505 114.849M402.505 129.622C403.2 130.234 403.867 130.836 404.505 131.427C410.74 132.797 416.213 134.735 421.005 137.069M402.505 129.622C398.838 130.224 390.605 132.227 387.005 135.427C383.405 138.627 381.838 145.427 381.505 148.427C381.172 150.927 382.605 155.527 391.005 153.927C399.405 152.327 403.505 148.927 404.505 147.427C405.838 144.427 409.105 138.527 411.505 138.927C413.905 139.327 418.838 137.855 421.005 137.069M421.005 137.069C434.515 143.647 442.618 153.376 447.138 162.427M447.138 162.427C450.376 168.91 451.774 175.046 452.005 179.427C454.95 182.69 458.458 190.614 459.707 203.927M447.138 162.427C437.094 161.927 417.805 164.327 421.005 177.927C423.405 189.127 435.005 186.927 440.505 184.427C444.306 183.26 453.468 185.527 459.707 203.927M44.0051 127.427C41.0051 128.094 35.9051 130.927 39.5051 136.927C40.5051 137.76 43.1051 138.327 45.5051 133.927C47.9051 129.527 45.5051 127.76 44.0051 127.427Z" stroke="black"/>
<path d="M110.505 14.427C136.458 14.427 157.505 35.6885 157.505 61.927C157.505 88.1655 136.458 109.427 110.505 109.427C84.5526 109.427 63.5051 88.1655 63.5051 61.927C63.5051 35.6885 84.5526 14.427 110.505 14.427Z" fill="white" stroke="black"/>
<ellipse cx="128.505" cy="65.427" rx="17.5" ry="18.5" fill="black"/>
<ellipse cx="134.005" cy="71.927" rx="6" ry="7" fill="#D9D9D9"/>
</svg>
